
<svg xmlns="http://www.w3.org/2000/svg" aria-hidden="true" style="position:absolute;width:0;height:0;overflow:hidden">
  <defs>

   <symbol id="icon-laptop" viewBox="0 0 32 32">
      <path fill="#ccd6dd" d="M30.222 25.863c-.371-.856-.796-1.785-1.778-1.785h-.889c.981 0 1.778-.799 1.778-1.785V7.118a1.8 1.8 0 0 0-.519-1.261 1.78 1.78 0 0 0-1.258-.524H4.445c-.981 0-1.778.799-1.778 1.785v15.175c0 .986.796 1.785 1.778 1.785h-.889c-.981 0-1.482.892-1.778 1.785L0 30.214C0 31.201.796 32 1.778 32h28.444c.981 0 1.778-.799 1.778-1.785z" style="fill:var(--color1, #ccd6dd)"/>
      <path fill="#9aaab4" d="m.007 30.289.005.051.151.615a1.783 1.783 0 0 0 1.615 1.046h28.444a1.772 1.772 0 0 0 1.771-1.711z" style="fill:var(--color2, #9aaab4)"/>
      <path fill="#5dadec" d="M27.556 21.4a.89.89 0 0 1-.889.892H5.334a.89.89 0 0 1-.889-.892V8.012a.89.89 0 0 1 .889-.892h21.333c.492 0 .889.4.889.892z" style="fill:var(--color3, #5dadec)"/>
      <path fill="#aebbc1" d="m29.25 27.593-.676-1.933c-.212-.409-.564-.744-1.056-.744H4.542c-.491 0-.805.363-1.028.921l-.612 1.757c-.195.53.398.892.889.892h6.736s.833-.042.98-.54c.171-.576.369-1.444.412-1.596.066-.235.345-.472.761-.472h7.625c.444 0 .663.225.721.503.037.181.277 1.014.389 1.584.099.508 1.085.521 1.085.521h5.861c.49 0 1.082-.419.887-.892z" style="fill:var(--color4, #aebbc1)"/>
      <path fill="#9aaab4" d="M19.889 29.434h-6.916c-.333 0-.478-.305-.43-.6s.319-1.594.34-1.745c.02-.152.244-.333.466-.333h6.236c.264 0 .436.145.489.435s.268 1.459.285 1.725c.017.267-.15.518-.469.518z" style="fill:var(--color2, #9aaab4)"/>
    </symbol>

    <symbol id="icon-headphones" viewBox="0 0 32 32">
      <path d="M12.995 24.381a11 11 0 0 1-1.6-.48 7.5 7.5 0 0 1-1.451-.733c-.792-.503-1.449-1.192-1.914-2.007s-.723-1.732-.751-2.669a8.26 8.26 0 0 1 1.667-5.249 8.4 8.4 0 0 1 2.757-2.452 9.1 9.1 0 0 1 3.557-1.027 8.31 8.31 0 0 1 7.994 4.744 6.1 6.1 0 0 1-2.346 8.502.52.52 0 0 0-.256.527q.016.104.069.194a.5.5 0 0 0 .314.244q.1.026.202.012c.102-.014.132-.033.191-.069 4.277-2.347 4.771-6.543 3.159-10.048a10 10 0 0 0-9.327-5.862c-1.5.099-2.96.526-4.277 1.252a9.73 9.73 0 0 0-4.916 9.327 6.94 6.94 0 0 0 3.277 5.502 8.8 8.8 0 0 0 1.68.747q.846.294 1.731.453c.124.024.252-.002.356-.072s.178-.178.204-.301a.465.465 0 0 0-.32-.534z"/>
      <path d="M15.873 22.409a3.58 3.58 0 0 0 2.664-2.278.5.5 0 0 0 .046-.399q-.03-.1-.098-.18c-.068-.08-.1-.096-.161-.127a.5.5 0 0 0-.399-.046q-.1.03-.18.098c-.08.068-.096.1-.127.161a2.37 2.37 0 0 1-2.45 1.026 3.2 3.2 0 0 1-.8-.2 3.22 3.22 0 0 1-1.692-1.267.46.46 0 0 0-.276-.281.45.45 0 0 0-.391.041.47.47 0 0 0-.24.613 4.17 4.17 0 0 0 1.8 2.413c.408.237.861.387 1.332.439q.487.066.973-.013z"/>
      <path d="M31.848 16.6a4 4 0 0 0-.387-1.013 4.63 4.63 0 0 0-2.984-2.238 16 16 0 0 0-.48-2.319 12.17 12.17 0 0 0-6.755-7.741 13.53 13.53 0 0 0-10.66.466 11.2 11.2 0 0 0-6.728 8.102c0 .32 0 .64-.08.96-.678.126-1.319.402-1.876.808S.88 14.555.55 15.16q-.261.48-.387 1.013a4 4 0 0 0 0 2.264 3.56 3.56 0 0 0 2.519 2.265q.396.125.813.173.405.04.812 0a.53.53 0 0 0 .506-.44.4.4 0 0 0 .346 0 .45.45 0 0 0 .267-.427 23 23 0 0 1-.587-3.997 15.4 15.4 0 0 1 .28-3.931 9.96 9.96 0 0 1 6.182-6.728c1.446-.693 3.017-1.089 4.619-1.164s3.203.171 4.708.724c1.417.597 2.689 1.491 3.731 2.622s1.828 2.473 2.305 3.934a13.73 13.73 0 0 1-.253 9.327.51.51 0 0 0 .005.401.52.52 0 0 0 .288.278.4.4 0 0 0 .253 0c-.37.775-.817 1.511-1.333 2.197a9.5 9.5 0 0 1-1.719 1.787 5.6 5.6 0 0 1-3.624 1.439.52.52 0 0 0-.626-.24.53.53 0 0 0-.293.693c0 .173 0 .293-.173.413-.213.16-.467.263-.732.292a2.4 2.4 0 0 1-1.12-.053 2.7 2.7 0 0 1-1.012-.493c-.227-.16-.4-.267-.32-.427.101-.194.259-.352.453-.453l.907-.293q.384-.061.773-.067h.825a.455.455 0 0 0 .52-.372.47.47 0 0 0-.073-.351.47.47 0 0 0-.301-.196l-1.773-.293a4 4 0 0 0-.679 0q-.361.029-.707.133a2.29 2.29 0 0 0-1.625 1.52 2.04 2.04 0 0 0 .986 2.185 4.3 4.3 0 0 0 1.772.667 4 4 0 0 0 1.785-.227 2.77 2.77 0 0 0 1.333-1.067 2 2 0 0 0 .133-.387 6.4 6.4 0 0 0 3.996-.773 7.34 7.34 0 0 0 2.665-2.664 9.6 9.6 0 0 0 1.212-3.104h.373q.414-.067.813-.187a3.56 3.56 0 0 0 2.411-2.266 3.9 3.9 0 0 0 .04-2.289zM3.655 19.744a5 5 0 0 1-.56-.227c-.312-.152-.585-.372-.799-.644s-.365-.589-.441-.927a3.3 3.3 0 0 1 .001-1.332c.093-.546.301-1.067.612-1.526s.715-.847 1.187-1.138q-.02 1.095.08 2.184c.133 1.312.383 2.611.747 3.877-.08 0-.133-.093-.227-.093l-.6-.173zm25.316.187c-2.013.973-.133-1.252-.36-5.489a4 4 0 0 1 1.585 2.559c.088.44.088.893 0 1.333a2.3 2.3 0 0 1-1.28 1.597z"/>
      <path d="M11.783 14.028a1.9 1.9 0 0 0-.707.12c-.507.2-.96.509-1.333.907a.47.47 0 0 0-.147.64c.187.333 2.667 0 3.147 0q.318.013.625.107a.546.546 0 0 0 .733-.173.535.535 0 0 0-.173-.72 3.2 3.2 0 0 0-1.44-.827 2.1 2.1 0 0 0-.705-.053zm9.66 1.665a.464.464 0 0 0-.16-.64 3.5 3.5 0 0 0-1.333-.905 1.9 1.9 0 0 0-.707-.12 2.2 2.2 0 0 0-.719.08 3.27 3.27 0 0 0-1.44.827.534.534 0 0 0-.159.72.53.53 0 0 0 .733.173q.305-.093.627-.107c1.504-.12 2.877.452 3.157-.028z"/>
    </symbol>

    <symbol id="icon-computer" viewBox="0 0 32 32">
  <path 
    fill="none" 
    stroke="#000" 
    stroke-linecap="round" 
    stroke-linejoin="round" 
    stroke-width="2" 
    d="M22.667 28H9.334M16 28v-5.333M16 22.667H4v-16h24v16z"
  />
</symbol>
     <symbol id="icon-joystick" viewBox="0 0 32 32">
      <path d="M14.667 11.033v-.567q-1.467-.434-2.4-1.649c-.933-1.215-.933-1.75-.933-2.817q0-1.934 1.367-3.3c1.367-1.366 2.011-1.367 3.3-1.367q1.933 0 3.3 1.367c1.367 1.367 1.367 2.011 1.367 3.3q0 1.6-.933 2.817c-.933 1.217-1.422 1.361-2.4 1.649v.567l9.333 5.367q.633.366.984.984c.351.618.35.861.349 1.349v2.533q0 .733-.349 1.351c-.349.618-.561.739-.984.983l-9.333 5.367q-.634.367-1.333.367c-.699 0-.911-.122-1.333-.367L5.336 23.6q-.633-.366-.983-.983c-.35-.617-.35-.861-.351-1.351v-2.533q0-.734.351-1.349c.351-.615.561-.739.983-.984l9.333-5.367zm-5.6 6.3 6.933 4 6.933-4-5.6-3.233v4.567h-2.667V14.1l-5.6 3.233z"/>
    </symbol>

    <symbol id="icon-linkedin-1" viewBox="0 0 32 32">
      <path fill="#f4f4fd" d="M31.992 32v-.001H32V20.263c0-5.741-1.236-10.164-7.948-10.164-3.227 0-5.392 1.771-6.276 3.449h-.093v-2.913h-6.364v21.364h6.627V21.42c0-2.785.528-5.479 3.977-5.479 3.399 0 3.449 3.179 3.449 5.657v10.401h6.62zM.528 10.636h6.635V32H.528zM3.843 0C1.722 0 0 1.721 0 3.843s1.721 3.879 3.843 3.879 3.843-1.757 3.843-3.879A3.846 3.846 0 0 0 3.843 0" style="fill:var(--color1, #f4f4fd)"/>
    </symbol>

    <symbol id="icon-twitter-1" viewBox="0 0 32 32">
      <path fill="#f4f4fd" d="M32 6.078c-1.19.522-2.458.868-3.78 1.036a6.52 6.52 0 0 0 2.886-3.626 13.1 13.1 0 0 1-4.16 1.588A6.57 6.57 0 0 0 22.154 3c-3.632 0-6.556 2.948-6.556 6.562 0 .52.044 1.02.152 1.496-5.454-.266-10.28-2.88-13.522-6.862a6.6 6.6 0 0 0-.898 3.316 6.57 6.57 0 0 0 2.914 5.452 6.5 6.5 0 0 1-2.964-.808v.072c0 3.188 2.274 5.836 5.256 6.446a6.6 6.6 0 0 1-1.72.216 5.8 5.8 0 0 1-1.242-.112c.85 2.598 3.262 4.508 6.13 4.57a13.18 13.18 0 0 1-8.134 2.798c-.538 0-1.054-.024-1.57-.09A18.47 18.47 0 0 0 10.064 29c12.072 0 18.672-10 18.672-18.668q-.002-.433-.024-.848A13.1 13.1 0 0 0 32 6.078" style="fill:var(--color1, #f4f4fd)"/>
    </symbol>

    <symbol id="icon-facebook-1" viewBox="0 0 32 32">
      <path fill="#f4f4fd" d="M21.329 5.313h2.921V.225C23.746.156 22.013 0 19.994 0c-4.212 0-7.097 2.649-7.097 7.519V12H8.249v5.688h4.648V32h5.699V17.689h4.46l.708-5.688h-5.169V8.082c.001-1.644.444-2.769 2.735-2.769z" style="fill:var(--color1, #f4f4fd)"/>
    </symbol>

    <symbol id="icon-instagram-2" viewBox="0 0 32 32">
      <path fill="#f4f4fd" d="M31.969 9.408c-.075-1.7-.35-2.869-.744-3.882a7.8 7.8 0 0 0-1.85-2.838A7.9 7.9 0 0 0 26.543.844C25.524.45 24.361.175 22.661.1 20.948.019 20.404 0 16.06 0s-4.888.019-6.595.094c-1.7.075-2.869.35-3.882.744a7.8 7.8 0 0 0-2.838 1.85A7.9 7.9 0 0 0 .901 5.52C.507 6.539.232 7.702.157 9.402c-.081 1.713-.1 2.257-.1 6.601s.019 4.888.094 6.595c.075 1.7.35 2.869.744 3.882a7.9 7.9 0 0 0 1.85 2.838 7.9 7.9 0 0 0 2.832 1.844c1.019.394 2.182.669 3.882.744 1.706.075 2.25.094 6.595.094s4.888-.019 6.595-.094c1.7-.075 2.869-.35 3.882-.744a8.18 8.18 0 0 0 4.682-4.682c.394-1.019.669-2.182.744-3.882.075-1.707.094-2.25.094-6.595s-.006-4.888-.081-6.595zm-2.882 13.065c-.069 1.563-.331 2.407-.55 2.969a5.3 5.3 0 0 1-3.038 3.038c-.563.219-1.413.481-2.969.55-1.688.075-2.194.094-6.464.094s-4.782-.019-6.464-.094c-1.563-.069-2.407-.331-2.969-.55a4.9 4.9 0 0 1-1.838-1.194 5 5 0 0 1-1.194-1.838c-.219-.563-.481-1.413-.55-2.969-.075-1.688-.094-2.194-.094-6.464s.019-4.782.094-6.464c.069-1.563.331-2.407.55-2.969a4.9 4.9 0 0 1 1.2-1.838A5 5 0 0 1 6.639 3.55c.563-.219 1.413-.481 2.969-.55 1.688-.075 2.194-.094 6.464-.094 4.276 0 4.782.019 6.464.094 1.563.069 2.407.331 2.969.55a4.9 4.9 0 0 1 1.838 1.194 5 5 0 0 1 1.194 1.838c.219.563.481 1.413.55 2.969.075 1.688.094 2.194.094 6.464s-.019 4.77-.094 6.458" style="fill:var(--color1, #f4f4fd)"/>
      <path fill="#f4f4fd" d="M16.059 7.783c-4.538 0-8.22 3.682-8.22 8.22s3.682 8.22 8.22 8.22 8.22-3.682 8.22-8.22-3.682-8.22-8.22-8.22m0 13.552a5.333 5.333 0 0 1 0-10.664 5.333 5.333 0 0 1 0 10.664M26.524 7.458a1.919 1.919 0 1 1-3.838 0 1.919 1.919 0 0 1 3.838 0" style="fill:var(--color1, #f4f4fd)"/>
    </symbol>
    
  </defs>
</svg>

